:FULLY-SPECIFIED
:FORCE-ALL-JOINTS-BE-3DOF
:DEGREES
2344
root 0.816209 13.984 -17.7545 921.353 -42.1965 166.256
lfemur -1.27162 -7.26737 2.08101
ltibia 29.6029 0 0
lfoot -11.8256 26.9675 0
ltoes -47.6906 0 0
rfemur -69.3323 -13.4798 12.0791
rtibia 79.2466 0 0
rfoot -9.99124 -17.4207 0
rtoes 6.60319 0 0
lowerback 20.2699 3.62363 -3.56063
upperback 0.55638 3.65226 -0.73837
thorax -10.9864 1.82051 0.168513
lowerneck -5.28069 -3.48322 -5.68568
upperneck 2.00737 -4.24145 1.05108
head 1.7231 -2.14787 1.23089
lclavicle -1.32633e-13 4.86816e-15 0
lhumerus -41.6057 -16.4783 86.6604
lradius 100.285 0 0
lwrist 54.9211 0 0
lhand -23.4935 402.999 0
lfingers 7.12502 0 0
lthumb 2.96713 -672.825 0
rclavicle -1.32633e-13 4.86816e-15 0
rhumerus 50.7565 9.82507 -47.8622
rradius 45.2952 0 0
rwrist 7.50551 0 0
rhand -6.96989 -397.632 0
rfingers 7.12502 0 0
rthumb 18.9009 293.246 0
2345
root 0.831421 13.9961 -17.8166 923.019 -41.9934 165
lfemur -1.89309 -7.2633 2.06819
ltibia 30.1571 0 0
lfoot -11.6315 26.821 0
ltoes -47.4179 0 0
rfemur -69.1036 -13.2053 12.1806
rtibia 79.2155 0 0
rfoot -10.0949 -17.8757 0
rtoes 6.53107 0 0
lowerback 20.3782 3.61375 -3.38871
upperback 0.574682 3.66447 -0.711618
thorax -11.0227 1.81857 0.0952727
lowerneck -5.35068 -3.25443 -5.50856
upperneck 2.04049 -3.92145 0.830201
head 1.73185 -1.99081 1.15141
lclavicle -1.33436e-13 5.12463e-15 0
lhumerus -40.2643 -16.7082 86.0234
lradius 100.394 0 0
lwrist 54.0277 0 0
lhand -23.7422 402.897 0
lfingers 7.12502 0 0
lthumb 2.727 -676.984 0
rclavicle -1.33436e-13 5.12463e-15 0
rhumerus 50.2823 10.4737 -47.993
rradius 46.0061 0 0
rwrist 7.05224 0 0
rhand -6.75844 -397.605 0
rfingers 7.12502 0 0
rthumb 19.1045 293.289 0
2346
root 0.845926 14.0089 -17.8838 924.835 -41.7466 163.625
lfemur -2.55238 -7.24767 2.0324
ltibia 30.7634 0 0
lfoot -11.4312 26.6728 0
ltoes -47.1168 0 0
rfemur -68.8577 -12.9154 12.2893
rtibia 79.1794 0 0
rfoot -10.2079 -18.3331 0
rtoes 6.44868 0 0
lowerback 20.4823 3.60171 -3.21386
upperback 0.590638 3.67522 -0.683636
thorax -11.0591 1.81586 0.0221815
lowerneck -5.41964 -3.01423 -5.32217
upperneck 2.07998 -3.5861 0.599599
head 1.74319 -1.82636 1.06811
lclavicle -1.34118e-13 5.37191e-15 0
lhumerus -38.8268 -16.9641 85.3475
lradius 100.514 0 0
lwrist 53.0559 0 0
lhand -24.0021 402.796 0
lfingers 7.12502 0 0
lthumb 2.47619 -681.033 0
rclavicle -1.34118e-13 5.37191e-15 0
rhumerus 49.7586 11.1619 -48.1481
rradius 46.7505 0 0
rwrist 6.58726 0 0
rhand -6.5428 -397.582 0
rfingers 7.12502 0 0
rthumb 19.312 293.33 0
2347
root 0.859652 14.0225 -17.9561 926.806 -41.4527 162.122
lfemur -3.25036 -7.21963 1.9724
ltibia 31.4234 0 0
lfoot -11.2249 26.5229 0
ltoes -46.7865 0 0
rfemur -68.5939 -12.6102 12.4054
rtibia 79.1384 0 0
rfoot -10.3304 -18.7921 0
rtoes 6.35547 0 0
lowerback 20.5815 3.58748 -3.03637
upperback 0.604069 3.68445 -0.654418
thorax -11.0953 1.81235 -0.0505725
lowerneck -5.48721 -2.76286 -5.12669
upperneck 2.12598 -3.23577 0.359622
head 1.75722 -1.65471 0.981116
lclavicle -1.34671e-13 5.6092e-15 0
lhumerus -37.2921 -17.2468 84.6328
lradius 100.647 0 0
lwrist 52.0041 0 0
lhand -24.2729 402.697 0
lfingers 7.12502 0 0
lthumb 2.21475 -684.955 0
rclavicle -1.34671e-13 5.6092e-15 0
rhumerus 49.1847 11.8902 -48.328
rradius 47.5292 0 0
rwrist 6.1102 0 0
rhand -6.32337 -397.563 0
rfingers 7.12502 0 0
rthumb 19.5232 293.367 0
2348
root 0.872528 14.0368 -18.0338 928.933 -41.1082 160.486
lfemur -3.98786 -7.17836 1.88693
ltibia 32.1388 0 0
lfoot -11.013 26.3714 0
ltoes -46.4264 0 0
rfemur -68.3114 -12.29 12.5291
rtibia 79.0926 0 0
rfoot -10.4623 -19.2513 0
rtoes 6.25087 0 0
lowerback 20.6753 3.57097 -2.8565
upperback 0.614799 3.6921 -0.62396
thorax -11.1314 1.80804 -0.122801
lowerneck -5.553 -2.50058 -4.9223
upperneck 2.17862 -2.87083 0.110622
head 1.77401 -1.47606 0.890526
lclavicle -1.35085e-13 5.8357e-15 0
lhumerus -35.6589 -17.557 83.8794
lradius 100.792 0 0
lwrist 50.8707 0 0
lhand -24.5547 402.599 0
lfingers 7.12502 0 0
lthumb 1.94273 -688.734 0
rclavicle -1.35085e-13 5.8357e-15 0
rhumerus 48.5599 12.6593 -48.5334
rradius 48.3428 0 0
rwrist 5.6207 0 0
rhand -6.10059 -397.547 0
rfingers 7.12502 0 0
rthumb 19.7376 293.401 0
2349
root 0.884482 14.0519 -18.1169 931.22 -40.7096 158.708
lfemur -4.76574 -7.12299 1.77474
ltibia 32.911 0 0
lfoot -10.7957 26.2185 0
ltoes -46.0358 0 0
rfemur -68.0096 -11.9547 12.6607
rtibia 79.0418 0 0
rfoot -10.604 -19.7099 0
rtoes 6.13433 0 0
lowerback 20.7632 3.55213 -2.67451
upperback 0.622651 3.69808 -0.592255
thorax -11.1671 1.8029 -0.194317
lowerneck -5.61668 -2.2276 -4.70917
upperneck 2.23802 -2.49165 -0.147049
head 1.79367 -1.2906 0.796457
lclavicle -1.35349e-13 6.05062e-15 0
lhumerus -33.9262 -17.8955 83.0873
lradius 100.95 0 0
lwrist 49.6541 0 0
lhand -24.8474 402.504 0
lfingers 7.12502 0 0
lthumb 1.66017 -692.356 0
rclavicle -1.35349e-13 6.05062e-15 0
rhumerus 47.8836 13.4698 -48.7648
rradius 49.1924 0 0
rwrist 5.11842 0 0
rhand -5.87489 -397.537 0
rfingers 7.12502 0 0
rthumb 19.9547 293.43 0
2350
root 0.895442 14.0678 -18.2057 933.669 -40.2535 156.782
lfemur -5.58484 -7.0527 1.63459
ltibia 33.7417 0 0
lfoot -10.5733 26.064 0
ltoes -45.614 0 0
rfemur -67.6878 -11.6046 12.8003
rtibia 78.9863 0 0
rfoot -10.7554 -20.1666 0
rtoes 6.00527 0 0
lowerback 20.8447 3.53091 -2.4907
upperback 0.627448 3.70234 -0.559299
thorax -11.2024 1.79692 -0.264931
lowerneck -5.67785 -1.94418 -4.48749
upperneck 2.30433 -2.0986 -0.413039
head 1.81628 -1.0985 0.699023
lclavicle -1.35456e-13 6.25318e-15 0
lhumerus -32.0927 -18.2632 82.2569
lradius 101.12 0 0
lwrist 48.3526 0 0
lhand -25.151 402.411 0
lfingers 7.12502 0 0
lthumb 1.36712 -695.803 0
rclavicle -1.35456e-13 6.25318e-15 0
rhumerus 47.155 14.3224 -49.0229
rradius 50.0786 0 0
rwrist 4.60298 0 0
rhand -5.64668 -397.531 0
rfingers 7.12502 0 0
rthumb 20.1743 293.456 0
